<svg enable-background="new 0 0 1000 1000" viewBox="0 0 1000 1000" xmlns="http://www.w3.org/2000/svg">
    <path d="m0 0h1000v1000h-1000z" fill="#fcfcfc" />
    <g fill="#372e42">
        <path d="m63.2 959.2c0 2.5-1.2 3.7-2.6 3.7-1.1 0-1.9-.5-2.1-1.4-.4.5-1 .8-1.8.8-1.5 0-2.6-1.2-2.6-2.8s1.1-2.8 2.6-2.8c.7 0 1.2.3 1.6.7v-.5h1.6v3.9c0 .8.3 1.4 1 1.4.9 0 1.7-.9 1.7-3 0-3-2.3-5.3-5.4-5.3s-5.6 2.4-5.6 5.7 2.5 5.7 5.9 5.7c1.1 0 2.1-.2 2.9-.4v.6c-.8.3-1.7.4-2.9.4-3.7 0-6.5-2.6-6.5-6.2 0-3.4 2.7-6.2 6.2-6.2 3.9-.2 6 2.9 6 5.7zm-4.9.3c0-.8-.6-1.4-1.3-1.4-.8 0-1.3.5-1.3 1.4 0 .8.6 1.3 1.3 1.3.8.1 1.3-.5 1.3-1.3z" />
        <path d="m69.4 955.1v2c-1.2-.1-2.6.5-2.6 2.4v4.3h-1.9v-8.6h1.9v1.4c.5-1.1 1.5-1.5 2.6-1.5z" />
        <path d="m74.6 962.3c1 0 1.8-.5 2.2-1.1l1.5.9c-.8 1.2-2.1 1.9-3.8 1.9-2.8 0-4.7-1.9-4.7-4.5 0-2.5 1.8-4.5 4.5-4.5 2.6 0 4.3 2.1 4.3 4.5 0 .3 0 .5-.1.8h-6.8c.4 1.3 1.5 2 2.9 2zm2.3-3.5c-.3-1.5-1.3-2.1-2.5-2.1-1.4 0-2.3.8-2.6 2.1z" />
        <path d="m88.9 955.2v8.6h-1.9v-1.2c-.7.9-1.7 1.5-3 1.5-2.3 0-4.3-2-4.3-4.5 0-2.6 1.9-4.5 4.3-4.5 1.3 0 2.3.5 3 1.4v-1.2h1.9zm-1.8 4.3c0-1.6-1.2-2.7-2.7-2.7s-2.7 1.1-2.7 2.7 1.2 2.7 2.7 2.7c1.5.1 2.7-1.1 2.7-2.7z" />
        <path d="m91.1 951.3h1.9v12.5h-1.9z" />
        <path d="m102.9 955.2-3.3 8.6h-2.1l-3.3-8.6h2l2.4 6.5 2.4-6.5z" />
        <path d="m104.2 955.2h1.9v8.9c0 2.4-1.2 3.5-3.5 3.3v-1.8c1.1.1 1.7-.3 1.7-1.5v-8.9zm-.2-2.4c0-.7.5-1.2 1.2-1.2s1.2.5 1.2 1.2c0 .6-.5 1.2-1.2 1.2s-1.2-.6-1.2-1.2z" />
        <path d="m116 955.2-3.3 8.8c-.8 2.2-2.2 3.3-4.2 3.2v-1.7c1.2.1 1.9-.5 2.3-1.7l.1-.2-3.6-8.4h2l2.6 6.2 2.2-6.2z" />
        <path d="m211.9 938.7c0 2.1-1.5 3.8-3.6 3.8h-3v-7.6h3c2.1 0 3.6 1.7 3.6 3.8zm-1 0c0-1.6-1.1-2.9-2.6-2.9h-2v5.7h2c1.5.1 2.6-1.2 2.6-2.8z" />
        <path d="m219.5 940.8h-3.4l-.6 1.7h-1.1l2.8-7.6h1.1l2.8 7.6h-1.1zm-.3-.9-1.4-3.8-1.4 3.8z" />
        <path d="m226.4 939.4v3.1h-1v-3.1l-2.7-4.5h1.1l2.1 3.6 2.1-3.6h1.1z" />
        <path d="m242 940.3c0 1.5-1.2 2.4-2.6 2.4-1.1 0-2.1-.5-2.5-1.6l.9-.5c.2.8.8 1.1 1.7 1.1s1.6-.5 1.6-1.4-.7-1.4-1.6-1.4h-2.2l.3-4h4.2v.9h-3.3l-.1 2h1.1c1.3.1 2.5.9 2.5 2.5z" />
        <path d="m245.1 938.7c0-2.4 1.1-4 2.9-4 1.9 0 2.9 1.6 2.9 4s-1 4-2.9 4c-1.8 0-2.9-1.7-2.9-4zm4.9 0c0-1.9-.7-3-1.9-3s-1.9 1.1-1.9 3 .7 3 1.9 3 1.9-1.1 1.9-3z" />
        <path d="m58.9 938.7c0 2.1-1.5 3.8-3.6 3.8h-3v-7.6h3c2.1 0 3.6 1.7 3.6 3.8zm-1 0c0-1.6-1.1-2.9-2.6-2.9h-2v5.7h2c1.5.1 2.6-1.2 2.6-2.8z" />
        <path d="m67 941.6v1h-4.6v-7.6h4.5v1h-3.5v2.3h3.2v.9h-3.2v2.4z" />
        <path d="m70 940.8.9-.5c.3.8.9 1.4 2 1.4s1.6-.5 1.6-1.2c0-.8-.7-1-1.8-1.4-1.2-.4-2.4-.8-2.4-2.2s1.1-2.2 2.4-2.2 2.2.7 2.6 1.7l-.8.5c-.3-.7-.8-1.2-1.7-1.2-.8 0-1.4.4-1.4 1.1s.5 1 1.6 1.3c1.3.4 2.6.8 2.6 2.3 0 1.3-1.1 2.2-2.6 2.2-1.5.1-2.6-.7-3-1.8z" />
        <path d="m80 934.9v7.6h-1v-7.6z" />
        <path d="m91.3 939.2c0 1.9-1.4 3.5-3.7 3.5-2.4 0-4-1.8-4-4s1.7-4 4-4c1.4 0 2.7.8 3.3 1.8l-.9.5c-.4-.8-1.4-1.4-2.4-1.4-1.8 0-3 1.3-3 3s1.2 3 3 3c1.6 0 2.5-.9 2.7-2h-2.8v-.9h3.8z" />
        <path d="m100.6 934.9v7.6h-.8l-3.9-5.7v5.7h-1v-7.6h.8l3.9 5.7v-5.7z" />
        <path d="m109.1 941.6v1h-4.6v-7.6h4.5v1h-3.5v2.3h3.2v.9h-3.2v2.4z" />
        <path d="m119.2 938.7c0 2.1-1.5 3.8-3.6 3.8h-3v-7.6h3c2 0 3.6 1.7 3.6 3.8zm-1 0c0-1.6-1.1-2.9-2.6-2.9h-2v5.7h2c1.5.1 2.6-1.2 2.6-2.8z" />
        <path d="m133.2 940.4c0 1.2-1 2.2-2.2 2.2h-3.3v-7.6h3c1.2 0 2.1.9 2.1 2.1 0 .7-.3 1.2-.8 1.6.7.2 1.2.8 1.2 1.7zm-4.5-4.6v2.3h2c.6 0 1.1-.5 1.1-1.2 0-.6-.5-1.2-1.1-1.2h-2zm3.5 4.5c0-.7-.5-1.2-1.2-1.2h-2.3v2.5h2.3c.7 0 1.2-.6 1.2-1.3z" />
        <path d="m139.4 939.4v3.1h-1v-3.1l-2.7-4.5h1.1l2.1 3.6 2.1-3.6h1.1z" />
        <path d="m214.1 956c0 2.3-1.8 4.1-4.1 4.1h-2.5v4.2h-2v-12.4h4.6c2.3 0 4 1.8 4 4.1zm-2 0c0-1.3-.9-2.2-2.1-2.2h-2.5v4.3h2.5c1.2 0 2.1-.9 2.1-2.1z" />
        <path d="m215.5 952.9c0-.7.5-1.2 1.2-1.2s1.2.5 1.2 1.2-.5 1.2-1.2 1.2c-.6 0-1.2-.5-1.2-1.2zm.3 2.5h1.9v8.9h-1.9z" />
        <path d="m224.5 955.3v2.1c-1.3-.1-2.7.5-2.7 2.5v4.5h-1.9v-8.9h1.9v1.5c.5-1.3 1.6-1.7 2.7-1.7z" />
        <path d="m234.5 955.4v8.9h-1.9v-1.3c-.7.9-1.7 1.5-3.1 1.5-2.4 0-4.4-2-4.4-4.7 0-2.6 2-4.7 4.4-4.7 1.4 0 2.4.6 3.1 1.5v-1.3h1.9zm-1.9 4.5c0-1.6-1.2-2.8-2.8-2.8s-2.8 1.2-2.8 2.8 1.2 2.8 2.8 2.8 2.8-1.2 2.8-2.8z" />
        <path d="m244.8 958.9v5.4h-1.9v-5.2c0-1.3-.8-2.1-2-2.1-1.3 0-2.2.7-2.2 2.5v4.7h-1.9v-12.4h1.9v4.7c.6-.9 1.5-1.4 2.7-1.4 1.9.1 3.4 1.5 3.4 3.8z" />
        <path d="m254.9 958.9v5.4h-1.9v-5.2c0-1.3-.8-2.1-2-2.1-1.3 0-2.2.7-2.2 2.5v4.7h-1.9v-8.9h1.9v1.1c.6-.9 1.5-1.4 2.7-1.4 2 .2 3.4 1.6 3.4 3.9z" />
        <path d="m265.8 955.4v8.9h-1.9v-1.3c-.7.9-1.7 1.5-3.1 1.5-2.4 0-4.4-2-4.4-4.7 0-2.6 2-4.7 4.4-4.7 1.4 0 2.4.6 3.1 1.5v-1.3h1.9zm-1.9 4.5c0-1.6-1.2-2.8-2.8-2.8s-2.8 1.2-2.8 2.8 1.2 2.8 2.8 2.8 2.8-1.2 2.8-2.8z" />
        <path d="m846.1 938.7c0 2.1-1.5 3.8-3.6 3.8h-3v-7.6h3c2.1 0 3.6 1.7 3.6 3.8zm-.9 0c0-1.6-1.1-2.9-2.6-2.9h-2v5.7h2c1.5.1 2.6-1.2 2.6-2.8z" />
        <path d="m849.3 938.7c0-2.2 1.7-4 3.9-4s4 1.8 4 4-1.7 4-4 4c-2.2 0-3.9-1.8-3.9-4zm6.8 0c0-1.7-1.3-3-2.9-3-1.7 0-2.9 1.3-2.9 3s1.3 3 2.9 3c1.7 0 2.9-1.3 2.9-3z" />
        <path d="m859.8 934.9h1.1l1.7 6.3 1.9-6.3h1l1.9 6.3 1.7-6.3h1.1l-2.2 7.6h-1.2l-1.8-6.1-1.8 6.1h-1.2z" />
        <path d="m879.3 934.9v7.6h-.8l-3.9-5.7v5.7h-1v-7.6h.8l3.9 5.7v-5.7z" />
        <path d="m887.5 941.6v1h-4.3v-7.6h1v6.7h3.3z" />
        <path d="m889.9 938.7c0-2.2 1.7-4 3.9-4s4 1.8 4 4-1.7 4-4 4c-2.2 0-3.9-1.8-3.9-4zm6.9 0c0-1.7-1.3-3-2.9-3-1.7 0-2.9 1.3-2.9 3s1.3 3 2.9 3 2.9-1.3 2.9-3z" />
        <path d="m905.4 940.8h-3.4l-.6 1.7h-1.1l2.8-7.6h1.1l2.8 7.6h-1zm-.3-.9-1.4-3.8-1.4 3.8z" />
        <path d="m916.9 938.7c0 2.1-1.5 3.8-3.6 3.8h-3v-7.6h3c2.1 0 3.6 1.7 3.6 3.8zm-1 0c0-1.6-1.1-2.9-2.6-2.9h-2v5.7h2c1.6.1 2.6-1.2 2.6-2.8z" />
        <path d="m926.5 935.8v2.5h3.2v1h-3.2v3.2h-1v-7.6h4.4v1h-3.4z" />
        <path d="m936.2 939.6h-1.8v2.9h-1v-7.6h3c1.3 0 2.4 1.1 2.4 2.4 0 1-.7 1.9-1.6 2.2l1.8 3.1h-1.1zm-1.8-.9h2c.8 0 1.4-.6 1.4-1.4s-.6-1.4-1.4-1.4h-2z" />
        <path d="m941.9 938.7c0-2.2 1.7-4 3.9-4s4 1.8 4 4-1.7 4-4 4c-2.2 0-3.9-1.8-3.9-4zm6.9 0c0-1.7-1.3-3-2.9-3-1.7 0-2.9 1.3-2.9 3s1.3 3 2.9 3 2.9-1.3 2.9-3z" />
        <path d="m960.4 942.5h-1v-6l-2.5 4.2h-.1l-2.5-4.1v5.9h-1v-7.6h1.1l2.4 4 2.4-4h1.1v7.6z" />
        <path d="m839.3 952.9c0-.7.5-1.2 1.2-1.2s1.2.5 1.2 1.2-.5 1.2-1.2 1.2c-.6 0-1.2-.5-1.2-1.2zm.3 2.5h1.9v8.9h-1.9z" />
        <path d="m843.7 951.4h1.9v12.9h-1.9z" />
        <path d="m847.8 951.4h1.9v12.9h-1.9z" />
        <path d="m852 951.4h1.9v12.9h-1.9z" />
        <path d="m864 955.4v8.9h-1.9v-1.1c-.6.9-1.5 1.4-2.7 1.4-2 0-3.4-1.3-3.4-3.6v-5.4h1.9v5.2c0 1.3.8 2.1 2 2.1 1.3 0 2.2-.7 2.2-2.5v-4.7h1.9z" />
        <path d="m872.6 961.8c0 1.8-1.5 2.7-3.5 2.7-1.8 0-3-.8-3.6-2.1l1.6-1c.3.8 1 1.3 2 1.3.8 0 1.5-.3 1.5-1 0-1.6-4.8-.7-4.8-3.9 0-1.7 1.4-2.7 3.2-2.7 1.5 0 2.7.7 3.3 1.8l-1.6.9c-.3-.7-.9-1-1.7-1-.7 0-1.3.3-1.3.9.2 1.8 4.9.8 4.9 4.1z" />
        <path d="m876.7 957.3v4.2c0 1.1.7 1.1 2.2 1v1.7c-2.9.4-4.1-.5-4.1-2.8v-4.2h-1.6v-1.8h1.6v-1.9l1.9-.6v2.5h2.2v1.8h-2.2z" />
        <path d="m885.4 955.3v2.1c-1.3-.1-2.7.5-2.7 2.5v4.5h-1.9v-8.9h1.9v1.5c.5-1.3 1.5-1.7 2.7-1.7z" />
        <path d="m895.3 955.4v8.9h-1.9v-1.3c-.7.9-1.7 1.5-3.1 1.5-2.4 0-4.4-2-4.4-4.7 0-2.6 2-4.7 4.4-4.7 1.4 0 2.4.6 3.1 1.5v-1.3h1.9zm-1.9 4.5c0-1.6-1.2-2.8-2.8-2.8s-2.8 1.2-2.8 2.8 1.2 2.8 2.8 2.8 2.8-1.2 2.8-2.8z" />
        <path d="m900.3 957.3v4.2c0 1.1.7 1.1 2.2 1v1.7c-2.9.4-4.1-.5-4.1-2.8v-4.2h-1.6v-1.8h1.6v-1.9l1.9-.6v2.5h2.2v1.8h-2.2z" />
        <path d="m903.9 952.9c0-.7.5-1.2 1.2-1.2s1.2.5 1.2 1.2-.5 1.2-1.2 1.2c-.6 0-1.2-.5-1.2-1.2zm.3 2.5h1.9v8.9h-1.9z" />
        <path d="m907.8 959.9c0-2.6 2.1-4.7 4.7-4.7s4.7 2 4.7 4.7c0 2.6-2.1 4.7-4.7 4.7-2.6-.1-4.7-2.1-4.7-4.7zm7.5 0c0-1.6-1.2-2.8-2.8-2.8s-2.8 1.2-2.8 2.8 1.2 2.8 2.8 2.8 2.8-1.2 2.8-2.8z" />
        <path d="m927 958.9v5.4h-1.9v-5.2c0-1.3-.8-2.1-2-2.1-1.3 0-2.2.7-2.2 2.5v4.7h-1.9v-8.9h1.9v1.1c.6-.9 1.5-1.4 2.7-1.4 1.9.2 3.4 1.6 3.4 3.9z" />
        <path d="m935.5 961.8c0 1.8-1.5 2.7-3.5 2.7-1.8 0-3-.8-3.6-2.1l1.6-1c.3.8 1 1.3 2 1.3.8 0 1.5-.3 1.5-1 0-1.6-4.8-.7-4.8-3.9 0-1.7 1.4-2.7 3.2-2.7 1.5 0 2.7.7 3.3 1.8l-1.6.9c-.3-.7-.9-1-1.7-1-.7 0-1.3.3-1.3.9.1 1.8 4.9.8 4.9 4.1z" />
        <path d="m936.8 963.2c0-.7.6-1.3 1.3-1.3s1.3.6 1.3 1.3-.6 1.3-1.3 1.3-1.3-.6-1.3-1.3z" />
        <path d="m940.3 959.9c0-2.6 2-4.7 4.7-4.7 1.7 0 3.2.9 3.9 2.3l-1.6 1c-.4-.8-1.3-1.4-2.3-1.4-1.6 0-2.7 1.2-2.7 2.8s1.2 2.8 2.7 2.8c1.1 0 1.9-.5 2.4-1.4l1.6.9c-.7 1.4-2.2 2.3-4 2.3-2.7 0-4.7-2-4.7-4.6z" />
        <path d="m949.7 959.9c0-2.6 2.1-4.7 4.7-4.7s4.7 2 4.7 4.7c0 2.6-2.1 4.7-4.7 4.7-2.6-.1-4.7-2.1-4.7-4.7zm7.5 0c0-1.6-1.2-2.8-2.8-2.8s-2.8 1.2-2.8 2.8 1.2 2.8 2.8 2.8 2.8-1.2 2.8-2.8z" />
    </g>
    <path d="m675.2 218.9c-55.7-83.8-265.5-64.2-283.5-9.4-7.9 24.2 26.9 39.4 17.7 68-10.8 33.6-63.6 27.6-154.9 96.2-15.5 11.7-110 82.6-109 177.9.9 88.9 74.5 175.9 154.3 192.8 81.7 17.3 113.5-50.2 196.4-33.9 103.1 20.4 115.3 133.5 177.7 133.5 120.9.1 246.7-427 160.9-482.5-33.9-21.9-87.9 22.6-125.8-9.4-36.6-30.8-2.3-85.9-33.8-133.2z" fill="#e4efef" />
    <path d="m431.4 763.7c-13.6 14.9-5 39.9 12.7 53.9 14.6 11.6 39.2 18.7 56.6 10.2 21.7-10.5 23.9-41.1 4.3-59.8-20-19.2-58.2-21.3-73.6-4.3z" fill="#e4efef" />
    <path d="m293 229.7c-17.1 4.7-21.6 52.6-10 62 31.5 25.4 53.6.7 40-34-6.2-15.9-19.3-31-30-28z" fill="#e4efef" />
    <path d="m734.2 265.8c-17.1 1.9-21.6 21-10 24.8 31.5 10.1 53.6.3 40-13.6-6.2-6.3-19.3-12.3-30-11.2z" fill="#e4efef" />
    <path d="m367.9 670.1s-8.1 9.2 34.7 51.9c0-16.5-5-35.2 17.8-42.4-27.4-3.7-52.5-9.5-52.5-9.5z" style="fill:none;stroke:#272130;stroke-width:6;stroke-linecap:round;stroke-linejoin:round;stroke-miterlimit:10" />
    <path d="m367.9 670.1s-8.1 9.2 34.7 51.9c0-16.5-5-35.2 17.8-42.4-27.4-3.7-52.5-9.5-52.5-9.5z" fill="#372e42" />
    <path d="m567.4 657.6s32.6 11.4 47.6 11.4 27-5.7 27-5.7l-15-5.7c22 0 38.5-16.6 38.5-16.6l-17.5-4c21.5-3.7 31-26 31-26-4 0-32.6-4.6-32.6-11.3-25.8 25.8-65.9 52.6-79 57.9z" fill="#372e42" />
    <path d="m646.4 599.7c-25.8 25.8-65.9 52.6-79 57.9 0 0 22.9 8 39.1 10.6 2.9-3.6 5.6-6.8 7.3-8.5 5.2-5.2 26.9-8.3 26.9-14.5s-5.3-9.3 7.4-16.4 11.4-12.9 11.4-12.9l1.4-8c-7.4-2.1-14.5-4.9-14.5-8.2z" fill="#2d2638" opacity=".83" />
    <path d="m591.9 645.2s9.7 10.9 16.7 10.9" style="fill:none;stroke:#272130;stroke-width:4;stroke-linecap:round;stroke-linejoin:round;stroke-miterlimit:10" />
    <path d="m632.9 645.2c-12.7 0-19.1-14.4-19.1-14.4" style="fill:none;stroke:#272130;stroke-width:4;stroke-linecap:round;stroke-linejoin:round;stroke-miterlimit:10" />
    <path d="m632.9 620h15.7" style="fill:none;stroke:#272130;stroke-width:4;stroke-linecap:round;stroke-linejoin:round;stroke-miterlimit:10" />
    <path d="m567.4 657.6s32.6 11.4 47.6 11.4 27-5.7 27-5.7l-15-5.7c22 0 38.5-16.6 38.5-16.6l-17.5-4c21.5-3.7 31-26 31-26-4 0-32.6-4.6-32.6-11.3-25.8 25.8-65.9 52.6-79 57.9z" style="fill:none;stroke:#272130;stroke-width:6;stroke-linecap:round;stroke-linejoin:round;stroke-miterlimit:10" />
    <ellipse cx="301.1" cy="403.5" fill="#fff" rx="33" ry="36" />
    <ellipse cx="290.4" cy="406.8" fill="#1e1826" rx="11.5" ry="11.8" />
    <ellipse cx="287.6" cy="402.8" fill="#fff" rx="5.1" ry="5.2" />
    <ellipse cx="293.3" cy="413" fill="#fff" rx="1.9" ry="1.9" />
    <ellipse cx="301.1" cy="403.5" rx="33" ry="36" style="fill:none;stroke:#204751;stroke-width:6;stroke-linecap:round;stroke-linejoin:round;stroke-miterlimit:10" />
    <path d="m471.6 357.7s30-55.6 106.5-55.6c-10.5 10.5-10.5 21-10.5 21s28.1-10.8 52.5-3c-16.5 16.5-16.5 25.5-16.5 25.5 16.5-16.5 51.8 4.7 57.9 10.9-32.8 12-23.3 13.9-23.3 13.9s19.8-.1 38.7 18.8c-19.2 5.9-41.2 14.4-37.8 38.9-20.4-18.9-22.1-35.8-167.5-70.4z" fill="#372e42" />
    <path d="m648.2 402.6-7.4-12.7s-18-7-26.9-15.9-13.3-10.3-21.9-18.9-17.9-10.4-29.4-10.4-22-11.1-27.6-16.7c-2.8-2.8-18.5-2.8-33.5-2.1-20.8 15.1-29.8 31.8-29.8 31.8 145.3 34.6 147 51.5 167.3 70.3-1.6-11.5 2.5-19.5 9.2-25.4z" fill="#2d2638" opacity=".83" />
    <path d="m512.6 361.4s18.6-24.3 37.1-33.4" style="fill:none;stroke:#272130;stroke-width:4;stroke-linecap:round;stroke-linejoin:round;stroke-miterlimit:10" />
    <path d="m542.5 367.5s15.9-18.6 49.5-30.5" style="fill:none;stroke:#272130;stroke-width:4;stroke-linecap:round;stroke-linejoin:round;stroke-miterlimit:10" />
    <path d="m574.2 381.7s19.6-22.7 53.4-24" style="fill:none;stroke:#272130;stroke-width:4;stroke-linecap:round;stroke-linejoin:round;stroke-miterlimit:10" />
    <path d="m600.9 398.1s28.2-16.4 47.7-16.4" style="fill:none;stroke:#272130;stroke-width:4;stroke-linecap:round;stroke-linejoin:round;stroke-miterlimit:10" />
    <path d="m471.6 357.7s30-55.6 106.5-55.6c-10.5 10.5-10.5 21-10.5 21s28.1-10.8 52.5-3c-16.5 16.5-16.5 25.5-16.5 25.5 16.5-16.5 51.8 4.7 57.9 10.9-32.8 12-23.3 13.9-23.3 13.9s19.8-.1 38.7 18.8c-19.2 5.9-41.2 14.4-37.8 38.9-20.4-18.9-22.1-35.8-167.5-70.4z" style="fill:none;stroke:#272130;stroke-width:6;stroke-linecap:round;stroke-linejoin:round;stroke-miterlimit:10" />
    <path d="m659.7 479.7s15.3 13.4 39.3 5 84.7-72.4 129.3-61c0 0-23.3 20.7-18 49.3 5.3 28.7-14 51.3-14 51.3s16 10.7 0 26.7-42.3 11.7-39.3 33 18.7 22.3 22 41-4 60.7 16 70c0 0-21.3 39.3-82-74.7-28-53.1-35.3-61.3-53.3-61.3-6-16 0-79.3 0-79.3z" fill="#372e42" />
    <path d="m659.7 479.7s-6 63.3 0 79.3c18 0 25.3 8.2 53.3 61.3.1.2.2.4.3.6 6.8-17.2 7.3-52 7.3-63.6 0-15.7 18.2-23.8 22-46 2.2-12.8-5.4-32.3-12.3-46.6-12.9 9.4-23.9 17.4-31.4 20-23.9 8.4-39.2-5-39.2-5z" fill="#2d2638" opacity=".83" />
    <path d="m676.8 513.4s24.3 5.6 57.3-10.3 39-33.4 54-33.4" style="fill:none;stroke:#272130;stroke-width:4;stroke-linecap:round;stroke-linejoin:round;stroke-miterlimit:10" />
    <path d="m675.8 533.7h56.7c30.2 0 49.1-9.2 49.1-9.2" style="fill:none;stroke:#272130;stroke-width:4;stroke-linecap:round;stroke-linejoin:round;stroke-miterlimit:10" />
    <path d="m675.8 546.6s38.9-.6 66.9 21.4" style="fill:none;stroke:#272130;stroke-width:4;stroke-linecap:round;stroke-linejoin:round;stroke-miterlimit:10" />
    <path d="m671.3 554s55.4 15.1 86.9 102.1" style="fill:none;stroke:#272130;stroke-width:4;stroke-linecap:round;stroke-linejoin:round;stroke-miterlimit:10" />
    <path d="m659.7 479.7s15.3 13.4 39.3 5 84.7-72.4 129.3-61c0 0-23.3 20.7-18 49.3 5.3 28.7-14 51.3-14 51.3s16 10.7 0 26.7-42.3 11.7-39.3 33 18.7 22.3 22 41-4 60.7 16 70c0 0-21.3 39.3-82-74.7-28-53.1-35.3-61.3-53.3-61.3-6-16 0-79.3 0-79.3z" style="fill:none;stroke:#272130;stroke-width:6;stroke-linecap:round;stroke-linejoin:round;stroke-miterlimit:10" />
    <path d="m449.8 355.1c-9.3 0-18.5.4-27.5 1.2l1.2.2c-1.2 0-2.4 0-3.6 0-9.2.9-18.2 2.1-26.9 3.8v315.7c18.2 3.4 37.2 5.2 56.8 5.2 125.4 0 227-73 227-163s-101.6-163.1-227-163.1z" fill="#4dc1c4" />
    <path d="m524.8 364.2c72.2 27.3 121.5 81.7 121.5 144.3 0 90-109 167.2-234.4 167.2-8.9 0-3.6 2.1-12.2 1.4l-6.7-1.2c18.2 3.4 37.2 5.2 56.8 5.2 125.4 0 227-73 227-163 0-71.2-63.5-131.7-152-153.9z" fill="#23afab" />
    <path d="m449.8 355.1c-9.3 0-18.5.4-27.5 1.2l1.2.2c-1.2 0-2.4 0-3.6 0-9.2.9-18.2 2.1-26.9 3.8v315.7c18.2 3.4 37.2 5.2 56.8 5.2 125.4 0 227-73 227-163s-101.6-163.1-227-163.1z" style="fill:none;stroke:#204751;stroke-width:6;stroke-linecap:round;stroke-linejoin:round;stroke-miterlimit:10" />
    <path d="m420.4 356.5c-14.1 1.3-27.6 3.5-40.7 6.5-57.8 17.8-104.9 75.3-104.9 137l-28.4-3c-12.5-1.3-23.5 8.3-23.5 20.9v.2c0 82.8 86.1 151.3 197.5 161.6 32-44.1 51.2-100.4 51.2-161.6 0-61.3-19.2-117.5-51.2-161.6z" fill="#4dc1c4" />
    <path d="m293.3 476.9s40.9 17.2 76.9 17.2 47.4-2.7 51.7-16.6c0 0 2.1 9.3-1.6 16.6s-18.3 29.7-93.8 14.3c-75.4-10.9-47.6-8-47.6-8s-1.7-29.4 14.4-23.5z" fill="#23afab" />
    <path d="m313.6 508.5s34 16.5 68.6 16.5c20.2 0 36.7-7.2 43.5-11.6 20.5-13.4 6.6-44.1 0-33.7-3.7 5.8-9.3 21.4-13 25.2s-55.9 8.5-62.5 8.5-36.6-4.9-36.6-4.9z" fill="#23afab" />
    <path d="m294.8 500c0-61.6 47.1-119.1 104.9-137 7.3-1.7 14.7-3.1 22.2-4.3-.5-.8-1.1-1.5-1.6-2.3 0 0 0 0-.1 0-14 1.3-27.6 3.5-40.7 6.6-57.1 17.6-103.9 74-104.9 134.8z" fill="#23afab" />
    <path d="m242.9 518.1c0-.1 0-.2 0-.2 0-9.2 6-16.8 14-19.7l-10.6-1.1c-12.5-1.3-23.5 8.3-23.5 20.9v.2c0 82.8 86.1 151.3 197.5 161.6.5-.8 1.1-1.5 1.6-2.3-102.2-15.9-179-81.2-179-159.4z" fill="#23afab" />
    <path d="m420.4 356.5c-14.1 1.3-27.6 3.5-40.7 6.5-57.8 17.8-104.9 75.3-104.9 137l-28.4-3c-12.5-1.3-23.5 8.3-23.5 20.9v.2c0 82.8 86.1 151.3 197.5 161.6 32-44.1 51.2-100.4 51.2-161.6 0-61.3-19.2-117.5-51.2-161.6z" style="fill:none;stroke:#204751;stroke-width:6;stroke-linecap:round;stroke-linejoin:round;stroke-miterlimit:10" />
    <path d="m353.7 511.3c-6.3-.6-12.1-1.3-17.3-2-.3-1.7-.4-3.4-.4-5.1 0-12.7 7.3-23.5 17.3-27.2-3 4.7-4.8 10.6-4.8 16.9 0 6.5 1.9 12.6 5.2 17.4z" style="fill:#fff;stroke:#fff;stroke-width:4;stroke-linecap:round;stroke-linejoin:round;stroke-miterlimit:10" />
    <path d="m288.5 503.1c-8.5-1.1-16.4-2.2-23.4-3.3-.3-2.3-.4-4.6-.4-7 .5-17.3 10.7-31.7 24.5-36.5-4.3 6.3-7 14.2-7.2 22.9-.2 8.9 2.2 17.2 6.5 23.9z" style="fill:#fff;stroke:#fff;stroke-width:4;stroke-linecap:round;stroke-linejoin:round;stroke-miterlimit:10" />
    <path d="m436 489.7c0-9.3-26-20-26-20" style="fill:none;stroke:#204751;stroke-width:6;stroke-linecap:round;stroke-linejoin:round;stroke-miterlimit:10" />
    <ellipse cx="350.2" cy="399.7" fill="#fff" rx="40" ry="42" />
    <ellipse cx="350.2" cy="399.7" rx="40" ry="42" style="fill:none;stroke:#204751;stroke-width:6;stroke-linecap:round;stroke-linejoin:round;stroke-miterlimit:10" />
    <ellipse cx="347" cy="411.5" fill="#1e1826" rx="16" ry="16.5" />
    <ellipse cx="343.1" cy="406" fill="#fff" rx="7.1" ry="7.3" />
    <ellipse cx="351.1" cy="420.3" fill="#fff" rx="2.6" ry="2.7" />
    <path d="m325.6 456.5.9-.9c-4.2 2-8.3 4.7-11.8 7.9-13.3 12.1-17.2 29-11.2 42.6l17.6 2.4c-10.8-16.2-9.6-37.3 4.5-52z" style="fill:#fff;stroke:#fff;stroke-width:4;stroke-linecap:round;stroke-linejoin:round;stroke-miterlimit:10" />
    <path d="m378.7 490.2c.1-.1.2-.3.4-.4-1.8 1.1-3.5 2.4-4.9 4-5.1 5.8-5.1 13.1-.8 18.6l8.8.1c-6.9-6.4-8.7-15.3-3.5-22.3z" style="fill:#fff;stroke:#fff;stroke-width:4;stroke-linecap:round;stroke-linejoin:round;stroke-miterlimit:10" />
    <path d="m523 532.3s-45.2 39.7-32.7 79.3c0 0 6.7 19.3 28.7 22.7 21.3 3.2 25.7-7 30.7-12-20.2-8.1-11.2-34.3-6.7-38.9-9.3 0-20-7.9-23.8-16.4-3.7-8.5-1.6-16.6 3.8-34.7z" fill="#372e42" />
    <path d="m490.3 611.7s6.4 18.5 27.4 22.4c-10.2-24.3-14.5-54.8-16.3-76.1-9.5 14.8-17.2 34.2-11.1 53.7z" fill="#2d2638" opacity=".83" />
    <path d="m523 532.3s-45.2 39.7-32.7 79.3c0 0 6.7 19.3 28.7 22.7 21.3 3.2 25.7-7 30.7-12-20.2-8.1-11.2-34.3-6.7-38.9-9.3 0-20-7.9-23.8-16.4-3.7-8.5-1.6-16.6 3.8-34.7z" style="fill:none;stroke:#272130;stroke-width:6;stroke-linecap:round;stroke-linejoin:round;stroke-miterlimit:10" />
    <path d="m425.7 479.7s1.2 37.6-52.7 33.4c-60.9-4.8-117.2-15.1-117.2-15.1" style="fill:none;stroke:#204751;stroke-width:6;stroke-linecap:round;stroke-linejoin:round;stroke-miterlimit:10" />
    <circle cx="343.8" cy="607.2" fill="#6d87ac" opacity=".78" r="23.6" />
    <circle cx="402.6" cy="419.2" fill="#6d87ac" opacity=".78" r="7.4" />
    <circle cx="421.2" cy="391.3" fill="#6d87ac" opacity=".78" r="11.1" />
    <circle cx="412.7" cy="530.6" fill="#6d87ac" opacity=".78" r="5.6" />
    <circle cx="422" cy="435.8" fill="#6d87ac" opacity=".39" r="3.7" />
    <circle cx="518.9" cy="423" fill="#6d87ac" opacity=".78" r="23.6" />
    <circle cx="591.9" cy="461.4" fill="#6d87ac" opacity=".39" r="29.4" />
    <circle cx="645" cy="512.4" fill="#6d87ac" opacity=".78" r="12" />
    <circle cx="395.3" cy="628.8" fill="#6d87ac" opacity=".78" r="8.8" />
    <path d="m500 589.7s10-6.3 14.3-10.7" style="fill:none;stroke:#272130;stroke-width:4;stroke-linecap:round;stroke-linejoin:round;stroke-miterlimit:10" />
    <path d="m500 602.3s20-4.3 25-9.3" style="fill:none;stroke:#272130;stroke-width:4;stroke-linecap:round;stroke-linejoin:round;stroke-miterlimit:10" />
    <path d="m504.3 611.7s13.3 5.3 23.3 8.3" style="fill:none;stroke:#272130;stroke-width:4;stroke-linecap:round;stroke-linejoin:round;stroke-miterlimit:10" />
    <path d="m382.2 679.7s5.9 15.3 13 18.6" style="fill:none;stroke:#272130;stroke-width:4;stroke-linecap:round;stroke-linejoin:round;stroke-miterlimit:10" />
</svg>