<svg enable-background="new 0 0 1000 1000" viewBox="0 0 1000 1000" xmlns="http://www.w3.org/2000/svg" xmlns:xlink="http://www.w3.org/1999/xlink"><radialGradient id="a" cx="500" cy="475.5" gradientTransform="matrix(1 0 0 -1 0 1000)" gradientUnits="userSpaceOnUse" r="534.3067"><stop offset="0" stop-color="#f29543"/><stop offset=".1095" stop-color="#f09543" stop-opacity=".8014"/><stop offset=".1711" stop-color="#e79645" stop-opacity=".6898"/><stop offset=".2208" stop-color="#da9747" stop-opacity=".5997"/><stop offset=".2641" stop-color="#c6994a" stop-opacity=".5211"/><stop offset=".3033" stop-color="#ac9b4e" stop-opacity=".45"/><stop offset=".3396" stop-color="#8d9e53" stop-opacity=".3844"/><stop offset=".3735" stop-color="#68a259" stop-opacity=".3228"/><stop offset=".4057" stop-color="#3ca661" stop-opacity=".2645"/><stop offset=".4353" stop-color="#0daa68" stop-opacity=".2108"/><stop offset=".4413" stop-color="#02ab6a" stop-opacity=".2"/></radialGradient><radialGradient id="b" cx="500" cy="475.5" gradientTransform="matrix(1 0 0 -1 0 1000)" gradientUnits="userSpaceOnUse" r="149.3"><stop offset="0" stop-color="#f29543"/><stop offset=".1302" stop-color="#eb9847" stop-opacity=".8637"/><stop offset=".3179" stop-color="#d8a151" stop-opacity=".667"/><stop offset=".5405" stop-color="#b9af61" stop-opacity=".4339"/><stop offset=".7638" stop-color="#92c176" stop-opacity=".2"/></radialGradient><radialGradient id="c" cx="500.4" cy="475.5" gradientTransform="matrix(1 0 0 -1 0 1000)" gradientUnits="userSpaceOnUse" r="57"><stop offset=".1237" stop-color="#f2ca91"/><stop offset="1" stop-color="#f2ca91" stop-opacity=".3"/></radialGradient><linearGradient id="d" gradientTransform="matrix(1 0 0 -1 0 1000)" gradientUnits="userSpaceOnUse" x1="499.8" x2="499.8" y1="315.5" y2="0"><stop offset="0" stop-color="#292e42" stop-opacity=".7"/><stop offset="1" stop-color="#151721" stop-opacity="0"/></linearGradient><circle cx="500" cy="524.5" fill="#515362" r="369.1"/><circle cx="500" cy="524.5" fill="#4c6166" opacity=".86" r="281.8"/><circle cx="500" cy="524.5" fill="url(#a)" opacity=".61" r="211"/><circle cx="500" cy="524.5" fill="url(#b)" opacity=".89" r="149.3"/><path d="m617.9 568.5-32.2-202.3c-3-18.5-24.2-32.7-47.6-32.7h-74.1c-23.4 0-44.6 14.1-47.6 32.7l-32.2 202.3c-6.1 38.6 19 73 56.9 73h119.9c37.8 0 63-34.4 56.9-73zm-30.7 40.4c-4.6 5.4-12.9 12.6-26.2 12.6h-120c-13.3 0-21.6-7.5-26.2-12.9-7.8-9.2-11.1-22.7-8.9-36.1l32.2-201.6c.9-5.8 11.4-13.4 25.8-13.4h74.1c14.4 0 24.9 7.4 25.8 13.2l32.2 201.8c2.3 13.5-1 27.2-8.8 36.4z" style="fill:none;stroke:#323345;stroke-width:6;stroke-linecap:round;stroke-linejoin:round;stroke-miterlimit:10"/><path d="m617.9 568.5-32.2-202.3c-3-18.5-24.2-32.7-47.6-32.7h-74.1c-23.4 0-44.6 14.1-47.6 32.7l-32.2 202.3c-6.1 38.6 19 73 56.9 73h119.9c37.8 0 63-34.4 56.9-73zm-30.7 40.4c-4.6 5.4-12.9 12.6-26.2 12.6h-120c-13.3 0-21.6-7.5-26.2-12.9-7.8-9.2-11.1-22.7-8.9-36.1l32.2-201.6c.9-5.8 11.4-13.4 25.8-13.4h74.1c14.4 0 24.9 7.4 25.8 13.2l32.2 201.8c2.3 13.5-1 27.2-8.8 36.4z" fill="#1c6f45"/><path d="m617.9 568.5-32.2-202.3c-3-18.5-24.2-32.7-47.6-32.7h-74.1c-23.4 0-44.6 14.1-47.6 32.7l-32.2 202.3c-6.1 38.6 19 73 56.9 73h119.9c37.8 0 63-34.4 56.9-73zm-30.7 40.4c-4.6 5.4-12.9 12.6-26.2 12.6h-120c-13.3 0-21.6-7.5-26.2-12.9-7.8-9.2-11.1-22.7-8.9-36.1l32.2-201.6c.9-5.8 11.4-13.4 25.8-13.4h74.1c14.4 0 24.9 7.4 25.8 13.2l32.2 201.8c2.3 13.5-1 27.2-8.8 36.4z" fill="#1c6f45"/><path d="m405.9 572.5 23.9-149.3c-6.3-4.9-13.1-9.1-20.5-12.3l-25.1 157.7c-1.5 9.5-1.1 18.8.9 27.4 7.4-1 14.4-2.9 21.1-5.5-1.2-5.8-1.3-11.9-.3-18z" fill="#c8a82f" opacity=".59"/><path d="m596.1 572.5c.8 5.2.8 10.5.1 15.5 6.6 3.1 13.6 5.5 20.9 7 1.8-8.3 2.2-17.2.7-26.4l-24.7-155c-7.3 3.8-14.1 8.6-20.2 14.1z" fill="#c8a82f" opacity=".59"/><path d="m561 641.5h-120c-37.8 0-63-34.4-56.9-73l32.2-202.3c3-18.5 24.2-32.7 47.6-32.7h74.1c23.4 0 44.6 14.1 47.6 32.7l32.2 202.3c6.2 38.6-19 73-56.8 73z" style="fill:none;stroke:#323345;stroke-width:6;stroke-linecap:round;stroke-linejoin:round;stroke-miterlimit:10"/><path d="m617.9 568.5-32.2-202.3c-3-18.5-24.2-32.7-47.6-32.7h-74.1c-23.4 0-44.6 14.1-47.6 32.7l-32.2 202.3c-6.1 38.6 19 73 56.9 73h119.9c37.8 0 63-34.4 56.9-73zm-21.6 46.9c-8.9 10.4-21.4 16.1-35.4 16.1h-119.9c-14 0-26.5-5.7-35.4-16.1-10.1-11.8-14.3-28.4-11.6-45.3l32.2-202.3c2.1-13.4 19-24.3 37.7-24.3h74.1c18.6 0 35.5 10.9 37.7 24.3l32.3 202.3c2.7 17-1.6 33.5-11.7 45.3z" fill="#145b34"/><path d="m617.9 568.5-32.2-202.3c-3-18.5-24.2-32.7-47.6-32.7h-74.1c-23.4 0-44.6 14.1-47.6 32.7l-32.2 202.3c-6.1 38.6 19 73 56.9 73h119.9c37.8 0 63-34.4 56.9-73z" style="fill:none;stroke:#323345;stroke-width:6;stroke-linecap:round;stroke-linejoin:round;stroke-miterlimit:10"/><path d="m529.7 423.2c-20.2 0-40.4 0-60.5 0-15.9 18.3-29.9 42.5-36.1 71.4-7.3 32.8-2.4 69.5 12.9 97.8 5.7 10.6 17.8 17.5 29.8 17.5h49c12.2 0 24.6-7.1 30.1-17.9 14-27.5 19.1-63.8 9.6-101.9-6.9-28.8-20.2-51.5-34.8-66.9z" fill="#dfc19f"/><circle cx="500.4" cy="524.5" fill="url(#c)" r="57"/><ellipse cx="473.4" cy="457.5" fill="#ecdbc9" rx="30.5" ry="13.5" transform="matrix(.2737 -.9618 .9618 .2737 -96.1773 787.5897)"/><path d="m529.7 424.2c-20.2 0-40.4 0-60.5 0-15.9 18.3-29.9 42.1-36.1 70.9-7.3 32.8-2.4 69.8 12.9 98.1 5.7 10.6 17.8 17.7 29.8 17.7h49c12.2 0 24.6-7.6 30.1-18.4 14-27.5 19.1-63.6 9.6-101.6-6.9-28.9-20.2-51.3-34.8-66.7z" style="fill:none;stroke:#323345;stroke-width:4;stroke-linecap:round;stroke-linejoin:round;stroke-miterlimit:10"/><path d="m561 656.5h-122v-19.5c0-6.6 5.4-12 12-12h98c6.6 0 12 5.4 12 12z" fill="#145b34"/><path d="m543.3 649.7h-86.7v-6.2c0-6.6 5.4-12 12-12h62.7c6.6 0 12 5.4 12 12z" fill="#1b6e44"/><path d="m549 625h-98c-6.6 0-12 4.2-12 9.3v6.5c0-5.1 5.4-9.3 12-9.3h98c6.6 0 12 4.2 12 9.3v-6.5c0-5.1-5.4-9.3-12-9.3z" fill="#c8a82f" opacity=".59"/><path d="m561 656.5h-122v-19.5c0-6.6 5.4-12 12-12h98c6.6 0 12 5.4 12 12z" style="fill:none;stroke:#323345;stroke-width:6;stroke-linecap:round;stroke-linejoin:round;stroke-miterlimit:10"/><path d="m590.8 684.5h-182v-4c0-13.3 10.8-24 24-24h133.9c13.3 0 24 10.8 24 24v4z" fill="#1b6e44"/><path d="m409.4 675c-.4 1.8-.6 3.6-.6 5.5v4h182v-4c0-1.9-.2-3.8-.6-5.5z" fill="#145b34"/><path d="m566.8 656.5h-134c-13.3 0-24 10.8-24 24v4h.2c1.3-12 11.5-21.3 23.9-21.3h133.9c12.4 0 22.5 9.3 23.9 21.3h.2v-4c-.1-13.2-10.9-24-24.1-24z" fill="#c8a82f" opacity=".59"/><g fill="url(#d)"><path d="m753 1000h-506.4l162.2-315.5h182z" opacity=".3"/><path d="m695 1000h-390.4l104.2-315.5h182z" opacity=".3"/><path d="m627.6 1000h-255.6l36.8-315.5h182z" opacity=".3"/></g><path d="m590.8 684.5h-182v-4c0-13.3 10.8-24 24-24h133.9c13.3 0 24 10.8 24 24v4z" style="fill:none;stroke:#323345;stroke-width:6;stroke-linecap:round;stroke-linejoin:round;stroke-miterlimit:10"/><path d="m544.3 433.3c-30 0-60 0-90 0 .9-6.5 5.1-13.5 10.7-20h68.7c5.6 6.5 9.7 13.5 10.6 20z" fill="#145b34"/><path d="m509.3 433.3h-20c-7.8 0-13.1-7.8-10.4-15.1.6-1.6 1.3-3.3 2-4.9h36.6c.7 1.6 1.4 3.2 2 4.9 3 7.2-2.4 15.1-10.2 15.1z" fill="#1b6e44"/><path d="m549.5 379.5h-101l9.1-8.7h82.8z" fill="#145b34"/><path d="m544.3 433.3c-30 0-60 0-90 0 .9-6.5 5.1-13.5 10.7-20h68.7c5.6 6.5 9.7 13.5 10.6 20z" style="fill:none;stroke:#323345;stroke-width:6;stroke-linecap:round;stroke-linejoin:round;stroke-miterlimit:10"/><path d="m529.7 380.5h-60.8l-3.2 8c-.5 1.2-.7 2.4-.7 3.6v21.4h69v-21.2c0-1.4-.3-2.7-.8-3.9z" fill="#145b34"/><path d="m505.7 380.5h-12.5c-4.7 0-8.8 3.4-9.7 8-.2 1.2-.3 2.4-.3 3.6v8.7c0 7 5.7 12.6 12.6 12.6h7.2c7 0 12.6-5.7 12.6-12.6v-8.6c0-1.4-.1-2.7-.4-3.9-.8-4.5-4.8-7.8-9.5-7.8z" fill="#1b6e44"/><path d="m529.7 380.5h-60.8l-3.2 8c-.5 1.2-.7 2.4-.7 3.6v21.4h69v-21.2c0-1.4-.3-2.7-.8-3.9z" style="fill:none;stroke:#323345;stroke-width:6;stroke-linecap:round;stroke-linejoin:round;stroke-miterlimit:10"/><path d="m549.5 379.5h-101l9.1-8.7h82.8z" style="fill:none;stroke:#323345;stroke-width:6;stroke-linecap:round;stroke-linejoin:round;stroke-miterlimit:10"/><path d="m533.9 318.2h-70.7l-5.6 52.6h81.9z" fill="#145b34"/><path d="m519.9 318.2h-42.7l-2.1 33c-.7 10.6 7.7 19.6 18.3 19.6h10.3c10.6 0 19-9 18.3-19.6z" fill="#1b6e44"/><path d="m533.9 318.2h-70.7l-5.6 52.6h81.9z" style="fill:none;stroke:#323345;stroke-width:6;stroke-linecap:round;stroke-linejoin:round;stroke-miterlimit:10"/><path d="m530.8 310.5c-5.9 0-11.6-2.5-15.6-6.9s-9.8-7.1-16.2-7.1-12.2 2.7-16.2 7.1-9.7 6.9-15.6 6.9h-14.2v8h92v-8z" fill="#145b34"/><path d="m530.8 310.5c-5.9 0-11.6-2.5-15.6-6.9s-9.8-7.1-16.2-7.1-12.2 2.7-16.2 7.1-9.7 6.9-15.6 6.9h-14.2v8h92v-8z" style="fill:none;stroke:#323345;stroke-width:6;stroke-linecap:round;stroke-linejoin:round;stroke-miterlimit:10"/><g fill="#323345"><circle cx="482.7" cy="396.3" r="4.8"/><circle cx="499.2" cy="396.3" r="4.8"/><circle cx="515.7" cy="396.3" r="4.8"/></g><path d="m503.5 512c-1.6 4.4-4.4 10.8-9.5 17.5-8.6 11.3-14.6 11.6-18 19.5-3.9 9.1-2.1 23.5 7.9 31.8 10.3 8.5 24.3 6.5 33.1 1.7 16.2-9 16.5-29 16.5-31 0-16.6-11.9-32.3-30-39.5z" fill="#fbaf41"/><path d="m506.5 524c-2.1 3.9-5.5 9.5-11 15-8.5 8.5-13.6 8.3-17 14.5-4.2 7.6-3.4 20.3 4.6 27.8 9.1 8.4 22.5 5.8 30.2 1.5 15.3-8.5 15.1-27.5 15.1-28.3-.4-13-9-24.9-21.9-30.5z" fill="#cc8127"/><path d="m503.5 512c-1.6 4.4-4.4 10.8-9.5 17.5-8.6 11.3-14.6 11.6-18 19.5-3.9 9.1-2.1 23.5 7.9 31.8 10.3 8.5 24.3 6.5 33.1 1.7 16.2-9 16.5-29 16.5-31 0-16.6-11.9-32.3-30-39.5z" style="fill:none;stroke:#323345;stroke-width:4;stroke-linecap:round;stroke-linejoin:round;stroke-miterlimit:10"/><path d="m525.8 609.5c-3.9-21-14.2-35.6-26.2-35.6-12.1 0-22.3 14.6-26.2 35.6z" fill="#1b6e44"/><path d="m499.6 582.5c10 0 18.9 7.5 24.5 19.4-4.8-16.8-13.9-27.9-24.5-27.9-10.5 0-19.7 11.1-24.5 27.9 5.6-11.9 14.5-19.4 24.5-19.4z" fill="#c8a82f"/><path d="m525.8 609.5c-3.9-21-14.2-35.6-26.2-35.6-12.1 0-22.3 14.6-26.2 35.6z" style="fill:none;stroke:#323345;stroke-width:4;stroke-linecap:round;stroke-linejoin:round;stroke-miterlimit:10"/><path d="m468 600.7h64v9.2h-64z" fill="#145b34"/><path d="m468 600.7h64v9.2h-64z" style="fill:none;stroke:#323345;stroke-width:4;stroke-linecap:round;stroke-linejoin:round;stroke-miterlimit:10"/><circle cx="584.5" cy="353.5" fill="#323345" r="10"/><circle cx="417.5" cy="353.5" fill="#323345" r="10"/><path d="m577.3 367.8 2.4-15.9h.4c9.5 0 17.2-7.6 17.2-17 0-7.8-5.3-14.3-12.4-16.3l14.9-98c4.7-30.7-19.3-58.4-50.7-58.4h-50.1-50.1c-31.4 0-55.4 27.6-50.7 58.4l14.9 98c-6.9 1.4-12.4 8.6-12.4 16.3 0 9.4 7.7 17 17.2 17h.4l2.4 15.9" style="fill:none;stroke:#323345;stroke-width:8;stroke-linecap:round;stroke-linejoin:round;stroke-miterlimit:10"/><path d="m512.7 170h-28.3c-2.8 0-5.1-2.3-5.1-5.1v-7.2c0-2.8 2.3-5.1 5.1-5.1h28.3c2.8 0 5.1 2.3 5.1 5.1v7.2c0 2.8-2.3 5.1-5.1 5.1z" fill="#323345"/><path d="m545.8 625h-91.6l13.9-17h63.9z" fill="#1b6e44"/><path d="m464.6 612.3c8.4 4.7 21.2 7.7 35.5 7.7s27.1-3 35.5-7.7l-3.6-4.3h-63.9z" fill="#c8a82f" opacity=".59"/><path d="m545.8 625h-91.6l13.9-17h63.9z" style="fill:none;stroke:#323345;stroke-width:4;stroke-linecap:round;stroke-linejoin:round;stroke-miterlimit:10"/><path d="m596.3 615.4c-8.9 10.4-21.4 16.1-35.4 16.1h-119.9c-14 0-26.5-5.7-35.4-16.1-10.1-11.8-14.3-28.4-11.6-45.3l32.2-202.3c2.1-13.4 19-24.3 37.7-24.3h74.1c18.6 0 35.5 10.9 37.7 24.3l32.3 202.3c2.7 17-1.6 33.5-11.7 45.3z" style="fill:none;stroke:#323345;stroke-width:4;stroke-linecap:round;stroke-linejoin:round;stroke-miterlimit:10"/><path d="m512.1 317.5h-28.5c-.5 0-1-.4-1-1 0-5 4-9 9-9h12.5c5 0 9 4 9 9 0 .6-.4 1-1 1z" fill="#323345"/><path d="m503.4 541.5c.3 1.9.5 4.4.2 7.2-.2 3.1-.9 5.8-1.6 7.8-1-4.3-3.8-8.1-4.2-7.9v.1c-.2.9-4.9 6.8-5.8 8.1-2.4 3.6-2.9 11.3 1.3 15.3 3.6 3.4 9.6 3.2 13.6 1.2 6.7-3.4 8-12.3 6.9-18.2-1.7-8.6-9.1-12.9-10.4-13.6z" fill="#fbaf41"/><path d="m503.4 541.5c.3 1.9.5 4.4.2 7.2-.2 3.1-.9 5.8-1.6 7.8-1-4.3-3.8-8.1-4.2-7.9v.1c-.2.9-4.9 6.8-5.8 8.1-2.4 3.6-2.9 11.3 1.3 15.3 3.6 3.4 9.6 3.2 13.6 1.2 6.7-3.4 8-12.3 6.9-18.2-1.7-8.6-9.1-12.9-10.4-13.6z" style="fill:none;stroke:#323345;stroke-width:4;stroke-linecap:round;stroke-linejoin:round;stroke-miterlimit:10"/></svg>